<svg version="1.1" id="Layer_1" xmlns="http://www.w3.org/2000/svg" xmlns:xlink="http://www.w3.org/1999/xlink" x="0px" y="0px"
	 width="100%" viewBox="0 0 1024 1024" enable-background="new 0 0 1024 1024" xml:space="preserve">
<path fill="#000000" opacity="1.000000" stroke="none" 
	d="
M164.108414,558.628784 
	C161.306244,535.643250 160.841080,512.986694 161.879883,490.363495 
	C165.319153,415.462036 192.038498,349.416656 238.841843,291.238251 
	C292.072510,225.070435 361.083435,184.974915 443.833344,167.891815 
	C472.171509,162.041595 500.949066,160.045654 529.761597,161.957581 
	C574.723389,164.941147 617.577393,176.327469 658.128479,196.341568 
	C695.411560,214.742783 729.057007,238.237198 757.580200,268.406921 
	C805.818604,319.429840 838.486267,378.738251 850.463562,448.626923 
	C854.099426,469.842682 856.232544,491.179108 855.959473,512.667847 
	C855.004333,587.834839 834.426941,656.667603 789.630432,717.764648 
	C754.794434,765.276794 711.541321,802.716492 658.598022,828.681274 
	C624.509155,845.399414 588.496216,855.613586 550.669678,859.445557 
	C518.889893,862.665039 487.097198,862.839844 455.524078,858.157227 
	C400.034302,849.927307 349.387665,829.495300 304.332214,795.743286 
	C254.639816,758.517517 217.211411,711.269958 190.704895,655.378052 
	C176.261383,624.922302 168.335632,592.467041 164.108414,558.628784 
M624.689758,212.901794 
	C587.957642,197.695526 549.567017,190.154816 509.960022,189.592773 
	C484.761902,189.235184 459.730743,192.797012 435.336578,198.951584 
	C347.446320,221.126068 280.429047,271.879761 233.820114,349.291565 
	C195.866348,412.328186 182.984253,481.039886 191.614212,553.712585 
	C196.262619,592.856567 207.807953,630.080383 227.513550,664.552917 
	C261.980988,724.849487 308.636597,772.353760 371.767334,802.657349 
	C410.534119,821.265869 451.604675,831.052002 494.383362,833.559692 
	C519.898193,835.055420 545.231689,832.594299 570.310425,827.629822 
	C625.307678,816.742737 674.323059,793.076233 716.096619,755.936951 
	C769.580322,708.386414 805.581299,650.012390 820.405457,579.251770 
	C827.185486,546.888245 829.434082,514.294067 826.387024,481.499329 
	C824.015198,455.972992 818.653259,430.873688 809.854614,406.694885 
	C776.602356,315.317139 713.962341,251.881058 624.689758,212.901794 
z"/>
<path fill="#000000" opacity="1.000000" stroke="none" 
	d="
M379.166199,279.161438 
	C387.379852,274.107697 386.748474,266.277527 385.775696,258.869293 
	C385.086182,253.618317 385.881897,248.182724 383.901306,243.086426 
	C383.205566,241.296173 384.447906,240.206329 385.783813,239.458832 
	C388.976166,237.672546 392.137421,235.770340 395.495270,234.349930 
	C418.453278,224.638290 442.216827,217.748352 466.936890,214.278046 
	C542.542175,203.664261 611.335083,221.428818 674.108093,264.102051 
	C713.487976,290.872589 745.362000,324.589630 768.237427,366.537476 
	C773.502808,376.192841 778.457703,386.009552 782.465576,396.271362 
	C783.054688,397.779755 784.042480,399.225433 783.505798,401.067871 
	C781.499329,402.795227 779.065735,402.101166 776.828979,402.082581 
	C697.007141,401.419708 617.184326,401.238586 537.360046,401.409760 
	C506.722015,401.475464 476.083588,401.343781 445.445312,401.318634 
	C438.735382,401.313141 438.425812,401.604523 438.420044,408.382782 
	C438.386566,447.714417 438.378510,487.046051 438.364197,526.377686 
	C438.358734,541.373352 447.351837,550.528259 462.563232,550.659790 
	C480.561279,550.815430 498.561340,550.756470 516.560547,550.752563 
	C568.891663,550.741028 621.229370,551.196350 673.551392,550.495728 
	C702.539124,550.107605 731.524170,550.062378 760.509827,549.799316 
	C767.636902,549.734619 771.275940,546.911560 771.265930,541.515991 
	C771.256226,536.294861 766.789185,532.327515 760.265259,532.295288 
	C738.100098,532.185730 715.934204,532.248291 693.768616,532.205933 
	C691.447083,532.201477 689.074402,532.193604 686.815735,531.739075 
	C682.338074,530.837952 679.762817,527.918762 679.787109,523.322083 
	C679.810364,518.926636 681.884521,515.726013 686.324158,514.338135 
	C688.611206,513.623169 690.934814,513.724792 693.260864,513.723450 
	C724.259583,513.705872 755.258240,513.699646 786.256958,513.688904 
	C789.583618,513.687744 793.178772,514.182373 794.535950,509.934235 
	C795.935364,505.553619 794.190063,501.292938 790.021851,498.779022 
	C786.936035,496.917908 783.573792,496.344849 779.973389,496.353394 
	C757.307800,496.407227 734.642029,496.360992 711.976318,496.340881 
	C710.310303,496.339417 708.630676,496.408173 706.980835,496.228699 
	C701.950439,495.681549 698.280457,492.204865 697.885193,487.750336 
	C697.506592,483.482300 700.327820,479.801147 705.296936,478.420593 
	C707.030640,477.938934 708.902893,477.776031 710.712280,477.773682 
	C739.877625,477.735748 769.043457,477.820740 798.208069,477.667572 
	C802.532959,477.644836 804.265259,478.828827 804.791443,483.381836 
	C807.274780,504.867554 806.501709,526.323303 804.140747,547.693726 
	C800.701782,578.821838 793.018860,608.966797 779.553833,637.310181 
	C755.791931,687.328003 722.245300,729.382690 676.077759,760.616699 
	C637.989685,786.384705 596.294189,803.134033 550.568359,809.438171 
	C479.677673,819.211731 413.959229,804.257202 352.628601,768.199463 
	C351.624298,767.608948 350.637726,766.979126 349.698181,766.291992 
	C349.324097,766.018372 349.100403,765.539124 348.002258,764.089722 
	C405.738159,745.418518 464.748322,743.657715 524.084290,744.311523 
	C517.841003,742.169556 511.378662,741.725708 505.000061,741.478638 
	C481.012970,740.549561 457.000153,740.524048 433.019623,741.451355 
	C402.320557,742.638550 372.075714,747.157532 342.594269,756.009583 
	C338.299927,757.299011 335.165497,756.799683 331.612335,754.071106 
	C323.677582,747.977539 315.969360,741.625977 308.365082,735.137390 
	C307.242126,734.179138 306.018097,733.275024 305.475159,731.247620 
	C312.691498,727.340454 320.527435,725.227356 328.275177,722.952332 
	C356.961609,714.528809 386.413208,710.557007 416.073151,707.496521 
	C449.436188,704.053894 482.865997,702.971863 516.345581,703.785522 
	C550.302185,704.610596 584.057922,707.875488 617.622681,713.295471 
	C633.654358,715.884277 649.558350,719.085632 665.540771,721.961060 
	C646.826294,714.020508 627.365784,708.385803 607.734863,703.370972 
	C575.790222,695.210632 543.372681,689.651550 510.574585,686.218872 
	C472.369751,682.220337 434.037689,682.167175 395.764587,683.588928 
	C357.464935,685.011719 319.526550,690.153503 282.412140,700.201782 
	C278.934662,701.143311 276.961456,700.407715 274.937714,697.454163 
	C269.027374,688.828430 262.807251,680.414856 255.718246,670.538452 
	C333.692169,655.044373 411.197784,651.349304 489.066162,653.066528 
	C566.991882,654.785034 643.679810,666.263428 719.515503,684.111023 
	C715.068115,680.740967 709.879761,679.046448 704.883789,676.917786 
	C661.792297,658.558533 617.072449,645.806458 570.817688,638.672424 
	C548.642090,635.252136 526.291260,633.023804 503.911316,631.180542 
	C467.697113,628.197876 431.410217,627.025391 395.104797,627.532837 
	C363.139435,627.979553 331.215851,629.902344 299.292633,631.794006 
	C279.637085,632.958801 260.164215,635.214539 240.720627,638.012268 
	C237.605576,638.460510 236.607040,636.770020 235.603760,634.498657 
	C227.161667,615.385925 221.149857,595.499268 216.742676,575.111694 
	C215.197418,567.963379 213.816284,560.772827 213.590790,553.423462 
	C213.556747,552.314392 212.967041,551.095398 214.256058,550.254944 
	C214.567841,550.319214 215.095795,550.308350 215.144073,550.455200 
	C217.521454,557.685059 223.198166,558.550903 229.592285,557.917480 
	C233.062912,557.573730 236.466766,557.204956 240.011963,557.607666 
	C244.275742,558.092041 247.181137,555.679199 249.098694,551.894714 
	C253.670288,542.872009 255.640793,533.037598 257.829315,523.319641 
	C259.307617,516.755432 262.535919,510.873413 264.242218,504.421875 
	C264.817078,502.248413 266.744202,501.451019 269.321228,503.132385 
	C266.392059,506.802002 268.039398,510.351593 269.103943,514.251465 
	C272.687469,527.379272 276.614136,540.443054 276.345001,554.341858 
	C276.064423,568.834900 276.487427,583.340698 276.308380,597.837280 
	C276.253387,602.291199 277.482452,604.331360 282.227936,604.003967 
	C287.207489,603.660339 292.230255,603.625916 297.218903,603.829468 
	C301.276062,603.995056 302.051575,602.083069 301.552155,598.622559 
	C300.162262,588.991882 302.540710,580.086975 307.263794,571.784302 
	C316.396362,555.730103 335.501068,547.684753 353.022827,552.348999 
	C371.145081,557.173157 384.188568,573.809387 384.304413,592.246948 
	C384.352905,599.966736 384.352905,599.973694 391.841858,599.968079 
	C444.006042,599.928772 496.170227,599.893494 548.334412,599.836731 
	C555.441528,599.828979 555.645569,599.770142 555.413513,592.784851 
	C555.151733,584.903687 557.788635,577.796021 560.925659,570.733643 
	C557.776611,569.199646 554.764771,569.420166 551.802490,569.416321 
	C519.303894,569.374268 486.799286,568.965149 454.308838,569.466614 
	C434.665985,569.769775 417.079773,551.933289 417.469055,532.741455 
	C418.202301,496.591309 417.673523,460.415466 417.656738,424.250305 
	C417.653778,417.887604 417.254517,417.428986 410.874237,417.415009 
	C387.875336,417.364624 364.872650,417.137024 341.879059,417.484100 
	C332.905762,417.619507 324.105347,419.952728 315.336823,421.962158 
	C312.227875,422.674591 311.274933,425.045258 310.152069,427.499908 
	C300.243866,449.160156 290.351776,470.828217 280.300568,492.422119 
	C279.080872,495.042419 278.591949,498.875336 274.151031,498.528656 
	C269.241150,498.145325 264.599945,497.760895 262.817261,491.761261 
	C260.925781,485.395630 260.405151,478.755310 257.814514,472.482391 
	C254.596008,464.689331 248.711929,459.019012 243.862183,452.525940 
	C242.308563,450.445892 239.680069,449.923920 237.055771,450.022125 
	C233.720734,450.146973 230.412643,450.115570 227.120712,449.320068 
	C221.947433,448.069977 220.646149,452.944855 217.692642,455.878052 
	C216.227661,453.571838 216.870590,451.513916 217.255630,449.500946 
	C221.661560,426.466522 229.487366,404.599945 239.505020,383.438019 
	C257.814606,344.759674 283.442352,311.700348 315.652374,283.658173 
	C318.361206,281.299866 320.998169,278.697815 324.638824,277.711914 
	C328.612579,287.765228 336.516296,291.451630 346.447845,292.023254 
	C346.946747,292.051971 347.468506,292.020325 347.939026,292.156738 
	C358.346954,295.173981 366.439606,291.126709 373.563385,283.896881 
	C375.189636,282.246399 377.104584,280.880402 379.166199,279.161438 
M395.389740,338.132355 
	C405.847076,346.228485 418.207733,345.483154 426.681763,336.245514 
	C433.627258,328.674133 434.879333,317.554291 429.747375,309.018951 
	C424.470612,300.242767 413.540314,295.604858 404.024231,298.514374 
	C387.407745,303.594757 381.068726,324.443176 395.389740,338.132355 
M609.309570,579.175049 
	C599.011658,571.172424 586.536499,572.900452 579.838989,583.257263 
	C574.062439,592.189941 577.557373,604.849487 587.325012,610.373535 
	C595.232788,614.845886 604.808838,612.846558 611.075378,605.414917 
	C617.575073,597.706787 617.116211,588.120605 609.309570,579.175049 
M324.577454,597.852783 
	C325.145233,599.232056 325.601593,600.670593 326.298950,601.980896 
	C330.747223,610.339355 340.240387,614.226501 349.081696,611.366333 
	C357.049713,608.788696 363.470490,599.455261 362.543579,591.797791 
	C361.231079,580.954895 350.686523,572.907288 339.729645,574.342285 
	C330.917725,575.496399 321.386810,585.050415 324.577454,597.852783 
M677.727173,603.537292 
	C679.718384,602.779663 679.666138,601.045593 679.678772,599.375366 
	C679.720337,593.889465 679.616699,588.399231 679.803894,582.918762 
	C679.925232,579.366211 678.314575,578.308167 674.997437,578.341492 
	C664.192444,578.450073 653.384338,578.473022 642.580383,578.319519 
	C639.029663,578.269104 637.884033,579.784058 637.952271,583.082703 
	C638.062256,588.400024 638.091736,593.725342 637.924744,599.040039 
	C637.809326,602.712585 639.342773,604.036377 642.958252,603.972656 
	C654.259277,603.773499 665.563965,603.781128 677.727173,603.537292 
M352.550262,342.834534 
	C352.594757,342.005920 352.710815,341.173950 352.672272,340.349243 
	C352.417908,334.907532 348.758118,331.259247 343.530884,331.196136 
	C338.450104,331.134766 333.941437,335.253906 333.477966,340.380585 
	C333.075378,344.833862 336.786346,349.747894 341.435791,350.387329 
	C346.813232,351.126892 350.201416,348.238495 352.550262,342.834534 
M511.782257,277.335602 
	C507.490875,278.152527 505.468140,281.244080 505.627289,285.106140 
	C505.771973,288.617889 508.173706,291.118927 511.979919,291.641724 
	C515.768372,292.162079 520.019836,288.830048 520.489014,285.020111 
	C520.936279,281.387939 517.697266,278.236725 511.782257,277.335602 
z"/>
<path fill="#000000" opacity="1.000000" stroke="none" 
	d="
M373.948059,441.029816 
	C387.055786,441.023346 385.156647,440.542816 385.210815,451.683777 
	C385.273193,464.510437 385.143311,477.338348 385.260712,490.164185 
	C385.292419,493.630035 384.383789,495.578705 380.664307,496.566986 
	C358.639679,502.418762 336.681610,508.520935 314.701263,514.539368 
	C312.966705,515.014282 311.264374,515.857239 308.861298,514.812073 
	C312.076904,507.018097 315.281830,499.252869 318.484436,491.486694 
	C324.702911,476.407227 330.991302,461.355957 337.087280,446.227173 
	C338.602173,442.467529 340.821716,440.887909 344.973633,440.994080 
	C354.462341,441.236755 363.962189,441.045074 373.948059,441.029816 
z"/>
<path fill="#000000" opacity="1.000000" stroke="none" 
	d="
M786.990723,460.342072 
	C764.856628,460.340302 743.220032,460.394745 721.584106,460.300934 
	C714.205017,460.268951 710.089111,455.437683 711.968384,449.243195 
	C713.195374,445.198730 715.932495,442.780365 720.346863,442.654602 
	C736.478760,442.194916 752.610718,441.995758 768.750977,442.249207 
	C776.561951,442.371887 784.381226,442.181702 792.192627,441.975281 
	C795.924988,441.876617 798.093018,442.996582 798.585449,447.112549 
	C799.072937,451.185974 800.245789,455.177338 801.201599,459.590729 
	C796.358765,460.942352 791.877625,460.059052 786.990723,460.342072 
z"/>
<path fill="#000000" opacity="1.000000" stroke="none" 
	d="
M753.000732,405.708435 
	C762.986938,405.703461 772.474304,405.771271 781.959229,405.652344 
	C784.864014,405.615906 786.636292,406.522339 787.488220,409.439941 
	C788.875793,414.191376 790.501648,418.873230 791.899475,423.190674 
	C790.418274,425.482849 788.618530,425.120422 787.021484,425.127045 
	C771.211060,425.192596 755.399414,425.331268 739.590271,425.197235 
	C730.667969,425.121613 725.744385,418.863617 728.553772,411.745087 
	C730.262817,407.414703 733.728943,405.871765 738.022278,405.773163 
	C742.846497,405.662415 747.674561,405.723236 753.000732,405.708435 
z"/>
</svg>